<svg width="36" height="36" viewBox="0 0 36 36" fill="none" xmlns="http://www.w3.org/2000/svg">
<circle cx="18" cy="18" r="18" fill="white"/>
<path d="M25.1497 14.3336C25.1612 14.4935 25.1612 14.6534 25.1612 14.8133C25.1612 19.6902 21.4492 25.3095 14.665 25.3095C12.5749 25.3095 10.6333 24.7041 9 23.6534C9.29696 23.6876 9.58247 23.6991 9.89086 23.6991C11.6154 23.6991 13.203 23.1166 14.4708 22.1229C12.849 22.0887 11.4898 21.0265 11.0216 19.5645C11.25 19.5988 11.4784 19.6216 11.7183 19.6216C12.0495 19.6216 12.3807 19.5759 12.6891 19.496C10.9987 19.1533 9.73093 17.6686 9.73093 15.8755V15.8298C10.222 16.1039 10.7931 16.2752 11.3984 16.298C10.4048 15.6356 9.75379 14.5049 9.75379 13.2257C9.75379 12.5404 9.93649 11.9123 10.2563 11.364C12.0723 13.6026 14.802 15.0645 17.8629 15.2244C17.8058 14.9503 17.7715 14.6648 17.7715 14.3793C17.7715 12.3463 19.4162 10.6902 21.4606 10.6902C22.5228 10.6902 23.4822 11.1356 24.156 11.8552C24.9898 11.6953 25.7893 11.3869 26.4974 10.9643C26.2233 11.8209 25.6408 12.5405 24.8756 12.9973C25.618 12.9174 26.3375 12.7117 26.9999 12.4262C26.4975 13.1572 25.8693 13.8082 25.1497 14.3336V14.3336Z" fill="black"/>
</svg>
