<svg width="85" height="24" viewBox="0 0 85 24" fill="none" xmlns="http://www.w3.org/2000/svg">
<rect width="85" height="24" rx="4" fill="black"/>
<path d="M10.0203 16L7.88427 7.42H9.51627L11.0043 13.72L12.6723 7.42H13.9923L15.6963 13.756L17.2323 7.42H18.7203L16.5723 16H14.9763L13.2843 9.748L11.5443 16H10.0203ZM22.1181 16.12C21.1821 16.12 20.4181 15.832 19.8261 15.256C19.2341 14.68 18.9381 13.904 18.9381 12.928V12.832C18.9381 11.872 19.2301 11.092 19.8141 10.492C20.4061 9.892 21.1541 9.592 22.0581 9.592C22.9061 9.592 23.6101 9.856 24.1701 10.384C24.7381 10.912 25.0221 11.704 25.0221 12.76V13.18H20.4261C20.4501 13.78 20.6101 14.24 20.9061 14.56C21.2021 14.88 21.6181 15.04 22.1541 15.04C23.0021 15.04 23.4821 14.72 23.5941 14.08H24.9981C24.8941 14.736 24.5901 15.24 24.0861 15.592C23.5821 15.944 22.9261 16.12 22.1181 16.12ZM20.4501 12.208H23.5821C23.5101 11.168 23.0021 10.648 22.0581 10.648C21.6261 10.648 21.2661 10.788 20.9781 11.068C20.6981 11.34 20.5221 11.72 20.4501 12.208ZM26.5424 10.432L25.6904 10.048L26.7224 7.276L28.0304 7.792L26.5424 10.432ZM28.6277 16V9.724H30.0797V10.9C30.4957 10.06 31.1757 9.636 32.1197 9.628V10.984C31.4397 10.992 30.9277 11.128 30.5837 11.392C30.2477 11.656 30.0797 12.104 30.0797 12.736V16H28.6277ZM36.04 16.12C35.104 16.12 34.34 15.832 33.748 15.256C33.156 14.68 32.86 13.904 32.86 12.928V12.832C32.86 11.872 33.152 11.092 33.736 10.492C34.328 9.892 35.076 9.592 35.98 9.592C36.828 9.592 37.532 9.856 38.092 10.384C38.66 10.912 38.944 11.704 38.944 12.76V13.18H34.348C34.372 13.78 34.532 14.24 34.828 14.56C35.124 14.88 35.54 15.04 36.076 15.04C36.924 15.04 37.404 14.72 37.516 14.08H38.92C38.816 14.736 38.512 15.24 38.008 15.592C37.504 15.944 36.848 16.12 36.04 16.12ZM34.372 12.208H37.504C37.432 11.168 36.924 10.648 35.98 10.648C35.548 10.648 35.188 10.788 34.9 11.068C34.62 11.34 34.444 11.72 34.372 12.208ZM43.2203 16V7.42H44.8163V11.068H48.6683V7.42H50.2763V16H48.6683V12.352H44.8163V16H43.2203ZM52.148 16V9.724H53.6V16H52.148ZM53.468 8.452C53.3 8.612 53.096 8.692 52.856 8.692C52.616 8.692 52.412 8.612 52.244 8.452C52.076 8.292 51.992 8.096 51.992 7.864C51.992 7.624 52.076 7.424 52.244 7.264C52.412 7.104 52.616 7.024 52.856 7.024C53.096 7.024 53.3 7.104 53.468 7.264C53.636 7.424 53.72 7.624 53.72 7.864C53.72 8.096 53.636 8.292 53.468 8.452ZM55.3699 16V9.724H56.8219V10.9C57.2379 10.06 57.9179 9.636 58.8619 9.628V10.984C58.1819 10.992 57.6699 11.128 57.3259 11.392C56.9899 11.656 56.8219 12.104 56.8219 12.736V16H55.3699ZM60.1754 16V9.724H61.6274V16H60.1754ZM61.4954 8.452C61.3274 8.612 61.1234 8.692 60.8834 8.692C60.6434 8.692 60.4394 8.612 60.2714 8.452C60.1034 8.292 60.0194 8.096 60.0194 7.864C60.0194 7.624 60.1034 7.424 60.2714 7.264C60.4394 7.104 60.6434 7.024 60.8834 7.024C61.1234 7.024 61.3274 7.104 61.4954 7.264C61.6634 7.424 61.7474 7.624 61.7474 7.864C61.7474 8.096 61.6634 8.292 61.4954 8.452ZM63.3972 16V9.724H64.8492V10.72C65.0092 10.392 65.2652 10.124 65.6172 9.916C65.9692 9.7 66.3892 9.592 66.8772 9.592C67.5412 9.592 68.0652 9.796 68.4492 10.204C68.8332 10.604 69.0252 11.22 69.0252 12.052V16H67.5732V12.184C67.5732 11.712 67.4732 11.364 67.2732 11.14C67.0732 10.916 66.7572 10.804 66.3252 10.804C65.8932 10.804 65.5372 10.936 65.2572 11.2C64.9852 11.456 64.8492 11.824 64.8492 12.304V16H63.3972ZM73.374 18.304C72.438 18.304 71.722 18.116 71.226 17.74C70.73 17.364 70.438 16.856 70.35 16.216H71.814C71.942 16.872 72.458 17.2 73.362 17.2C74.53 17.2 75.114 16.636 75.114 15.508V14.584C74.93 14.904 74.65 15.18 74.274 15.412C73.906 15.636 73.502 15.748 73.062 15.748C72.262 15.748 71.598 15.472 71.07 14.92C70.542 14.368 70.278 13.648 70.278 12.76V12.676C70.278 11.796 70.546 11.064 71.082 10.48C71.618 9.888 72.29 9.592 73.098 9.592C74.026 9.592 74.698 9.956 75.114 10.684V9.724H76.566V15.532C76.558 16.436 76.27 17.124 75.702 17.596C75.142 18.068 74.366 18.304 73.374 18.304ZM73.422 14.632C73.934 14.632 74.35 14.46 74.67 14.116C74.998 13.772 75.162 13.304 75.162 12.712V12.628C75.162 12.036 75.01 11.572 74.706 11.236C74.402 10.9 73.99 10.732 73.47 10.732C72.942 10.732 72.526 10.908 72.222 11.26C71.918 11.612 71.766 12.076 71.766 12.652V12.748C71.766 13.316 71.922 13.772 72.234 14.116C72.546 14.46 72.942 14.632 73.422 14.632Z" fill="white"/>
</svg>
