<svg xmlns="http://www.w3.org/2000/svg" xmlns:xlink="http://www.w3.org/1999/xlink" version="1.1" style="enable-background:new 0 0 496.158 496.158;" xml:space="preserve" width="48" height="48"><rect id="backgroundrect" width="100%" height="100%" x="0" y="0" fill="none" stroke="none" class="" style=""/> <g class="currentLayer" style=""><title>Layer 1</title><g id="svg_1" class=""><path style="fill:#FF5A5F" d="M24.026165671795518,0.6359190689878095 C11.106419183544027,0.6359190689878095 0.6329114437103271,11.10829525130931 0.6329114437103271,24.029173297073022 c0,12.918614930739334 10.473507739833707,23.392122670573045 23.393254228085226,23.392122670573045 c12.919180709495427,0 23.392688449329132,-10.473507739833707 23.392688449329132,-23.392122670573045 C47.41885412112465,11.10829525130931 36.94534638129095,0.6359190689878095 24.026165671795518,0.6359190689878095 z" data-original="#56B48C" class="active-path" data-old_color="#56B48C" id="svg_2"/><path style="fill:#FFFFFF" d="M26.919652526903096,14.348133001603781 c-0.2947707319232932,-0.377468726771895 -0.6861010382194122,-0.566344534846865 -1.1740852153477044,-0.566344534846865 c-0.43291504486879046,0 -0.7275914803327356,0.08288658776729843 -0.8840293063918345,0.2486597633018952 c-0.15672071543714441,0.16577317553459694 -0.4927932965550642,0.6077406805008404 -1.0083120398131076,1.3260911078174258 c-0.5158016326360894,0.718256130857237 -1.107417618588341,1.3674872534714002 -1.7749422543161057,1.9475990713831401 c-0.6678075251058105,0.5801118179117406 -1.5587204730300825,1.132689069693729 -2.6728331402321643,1.6575431624272703 c-0.7458849934463371,0.35002845710149233 -1.2663071525905003,0.6353695430899391 -1.560889291595097,0.8564004438027345 c-0.2947707319232932,0.22103090071279569 -0.44206180142559126,0.566344534846865 -0.44206180142559126,1.0359409024022068 c0,0.4052861822796917 0.14955418452666136,0.7621039844542725 0.4489454429580293,1.0705477029830925 c0.2991083690533226,0.30863231144751696 0.6423474810817256,0.4627127260229048 1.0290572608697692,0.4627127260229048 c0.8101951787219883,0 2.384946049841308,-0.8977965894567098 4.724064020439265,-2.6934840648294776 V32.26361160967749 c0,0.7368325333488849 0.17029940558332318,1.2939360151795998 0.5110868096686657,1.6714047419514944 c0.3405988111666462,0.377468726771895 0.7918073691490377,0.566344534846865 1.3536256739471761,0.566344534846865 c1.261498033163729,0 1.892341346204942,-0.9254254520458095 1.892341346204942,-2.7763706525967757 V15.90902229319888 C27.36171432832868,15.246023887519845 27.214328962367066,14.725884617753731 26.919652526903096,14.348133001603781 z" data-original="#FFFFFF" class="" data-old_color="#FFFFFF" id="svg_3"/></g></g></svg>