<svg width="56" height="56" viewBox="0 0 56 56" fill="none" xmlns="http://www.w3.org/2000/svg">
<g filter="url(#filter0_d)">
<rect x="4" y="2" width="48" height="48" rx="12" fill="black"/>
</g>
<path d="M21.1747 34V33.376L27.4627 26.728C28.3587 25.784 29.0307 24.928 29.4787 24.16C29.9427 23.392 30.1747 22.64 30.1747 21.904C30.1747 21.184 29.9747 20.616 29.5747 20.2C29.1907 19.784 28.6307 19.576 27.8947 19.576C26.3107 19.576 25.3987 20.624 25.1587 22.72H21.6307C21.7267 20.752 22.3347 19.24 23.4547 18.184C24.5907 17.128 26.1267 16.6 28.0627 16.6C29.9347 16.6 31.3907 17.08 32.4307 18.04C33.4867 18.984 34.0147 20.24 34.0147 21.808C34.0147 22.88 33.7347 23.904 33.1747 24.88C32.6147 25.84 31.7907 26.84 30.7027 27.88L27.4627 31.048H34.1347V34H21.1747Z" fill="white"/>
<defs>
<filter id="filter0_d" x="0" y="0" width="56" height="56" filterUnits="userSpaceOnUse" color-interpolation-filters="sRGB">
<feFlood flood-opacity="0" result="BackgroundImageFix"/>
<feColorMatrix in="SourceAlpha" type="matrix" values="0 0 0 0 0 0 0 0 0 0 0 0 0 0 0 0 0 0 127 0"/>
<feOffset dy="2"/>
<feGaussianBlur stdDeviation="2"/>
<feColorMatrix type="matrix" values="0 0 0 0 0 0 0 0 0 0 0 0 0 0 0 0 0 0 0.12 0"/>
<feBlend mode="normal" in2="BackgroundImageFix" result="effect1_dropShadow"/>
<feBlend mode="normal" in="SourceGraphic" in2="effect1_dropShadow" result="shape"/>
</filter>
</defs>
</svg>
