<svg xmlns="http://www.w3.org/2000/svg" width="42" height="42" fill="none"><rect id="backgroundrect" width="100%" height="100%" x="0" y="0" fill="none" stroke="none"/>


<defs>
<clipPath id="clip0">
<rect x="10.5" y="10.5" width="21" height="21" fill="white" id="svg_1"/>
</clipPath>
</defs>
<g class="currentLayer" style=""><title>Layer 1</title><circle cx="21" cy="21" r="21" fill="#ff5a5f" id="svg_2" class="" fill-opacity="1"/><g clip-path="url(#clip0)" id="svg_3" class="">
<path d="M29.3413 16.7225C29.3547 16.9091 29.3547 17.0957 29.3547 17.2822C29.3547 22.9719 25.0241 29.5277 17.1091 29.5277C14.6707 29.5277 12.4055 28.8215 10.5 27.5957C10.8465 27.6356 11.1795 27.6489 11.5393 27.6489C13.5514 27.6489 15.4035 26.9694 16.8826 25.8101C14.9905 25.7701 13.4048 24.5309 12.8585 22.8253C13.125 22.8653 13.3915 22.8919 13.6713 22.8919C14.0577 22.8919 14.4442 22.8386 14.8039 22.7454C12.8319 22.3456 11.3528 20.6134 11.3528 18.5214V18.4681C11.9257 18.7879 12.592 18.9878 13.2982 19.0144C12.1389 18.2416 11.3794 16.9224 11.3794 15.43C11.3794 14.6305 11.5926 13.8977 11.9657 13.2581C14.0844 15.8697 17.269 17.5753 20.84 17.7619C20.7734 17.4421 20.7334 17.109 20.7334 16.7759C20.7334 14.404 22.6522 12.4719 25.0374 12.4719C26.2766 12.4719 27.3959 12.9916 28.182 13.8311C29.1547 13.6445 30.0875 13.2847 30.9136 12.7917C30.5938 13.7911 29.9142 14.6306 29.0215 15.1635C29.8876 15.0703 30.7271 14.8304 31.4999 14.4973C30.9137 15.3501 30.1808 16.1096 29.3413 16.7225Z" fill="white" id="svg_4"/>
</g></g></svg>