<svg width="36" height="36" viewBox="0 0 36 36" fill="none" xmlns="http://www.w3.org/2000/svg">
<circle cx="18" cy="18" r="18" fill="white"/>
<g clip-path="url(#clip0)">
<path d="M13.6505 24.7501H10.3852V14.2349H13.6505V24.7501ZM12.0161 12.8005C10.9719 12.8005 10.125 11.9357 10.125 10.8915C10.125 10.39 10.3242 9.90901 10.6789 9.55437C11.0335 9.19972 11.5145 9.00049 12.0161 9.00049C12.5176 9.00049 12.9986 9.19972 13.3532 9.55437C13.7079 9.90901 13.9071 10.39 13.9071 10.8915C13.9071 11.9357 13.0598 12.8005 12.0161 12.8005ZM25.8715 24.7501H22.6132V19.6314C22.6132 18.4115 22.5886 16.847 20.9155 16.847C19.2178 16.847 18.9577 18.1724 18.9577 19.5435V24.7501H15.6959V14.2349H18.8276V15.6693H18.8733C19.3092 14.8431 20.3741 13.9712 21.9628 13.9712C25.2675 13.9712 25.875 16.1474 25.875 18.974V24.7501H25.8715Z" fill="black"/>
</g>
<defs>
<clipPath id="clip0">
<rect x="10.125" y="9" width="15.75" height="18" fill="white"/>
</clipPath>
</defs>
</svg>
