<svg xmlns="http://www.w3.org/2000/svg" width="16" height="16" fill="none"><rect id="backgroundrect" width="100%" height="100%" x="0" y="0" fill="none" stroke="none"/>


<g class="currentLayer" style=""><title>Layer 1</title><path d="M0.853553 0.146447C0.658291 -0.0488155 0.341709 -0.0488155 0.146447 0.146447C-0.0488155 0.341709 -0.0488155 0.658291 0.146447 0.853553L0.853553 0.146447ZM15.1464 15.8536C15.3417 16.0488 15.6583 16.0488 15.8536 15.8536C16.0488 15.6583 16.0488 15.3417 15.8536 15.1464L15.1464 15.8536ZM0.146447 0.853553L15.1464 15.8536L15.8536 15.1464L0.853553 0.146447L0.146447 0.853553Z" fill="#ff5a5f" id="svg_1" class="" fill-opacity="1"/><path d="M0.146447 15.1464C-0.0488155 15.3417 -0.0488155 15.6583 0.146447 15.8536C0.341709 16.0488 0.658291 16.0488 0.853553 15.8536L0.146447 15.1464ZM15.8536 0.853554C16.0488 0.658291 16.0488 0.341709 15.8536 0.146446C15.6583 -0.0488157 15.3417 -0.0488157 15.1464 0.146446L15.8536 0.853554ZM0.853553 15.8536L15.8536 0.853554L15.1464 0.146446L0.146447 15.1464L0.853553 15.8536Z" fill="#ff5a5f" id="svg_2" class="selected" fill-opacity="1"/></g></svg>