<svg xmlns="http://www.w3.org/2000/svg" xmlns:xlink="http://www.w3.org/1999/xlink" version="1.1" style="" xml:space="preserve" width="48" height="48"><rect id="backgroundrect" width="100%" height="100%" x="0" y="0" fill="none" stroke="none" class="" style=""/> <g class="currentLayer" style=""><title>Layer 1</title><g id="svg_1" class=""><path style="fill:#FF5A5F" d="M23.71218918936498,1.2649692809282043 C10.96584809989741,1.2649692809282043 0.6329129934310914,11.596793837826032 0.6329129934310914,24.344258478683766 c0,12.74523189950303 10.33293510646632,23.078172827078223 23.07927619593389,23.078172827078223 c12.745782904443365,0 23.078718010909686,-10.332940927575194 23.078718010909686,-23.078172827078223 C46.790907200274674,11.596793837826032 36.45797209380835,1.2649692809282043 23.71218918936498,1.2649692809282043 z" data-original="#56B48C" class="" data-old_color="#56B48C" id="svg_2"/><path style="fill:#FFFFFF" d="M30.369010757233873,26.356144501009677 c-0.2453223181394766,-0.5949325401264373 -0.6111195706705442,-1.137860812867311 -1.0970196342437277,-1.6285057255532887 c-0.48617915608528905,-0.4905518817962006 -1.0834371319879963,-0.9266806930726255 -1.792053020220228,-1.3082934029394975 c0.7358739235810624,-0.6177251081218995 1.3014083839412744,-1.2513584983957318 1.6966033810806362,-1.901086232601054 c0.3951949971393625,-0.6494486415359908 0.5927924957090436,-1.428489312531891 0.5927924957090436,-2.3371220129877015 c0,-0.690289202148267 -0.13629017674415395,-1.3354584227544963 -0.40887053023246156,-1.9351355382595805 s-0.6768923726897357,-1.1264180134246913 -1.2128430267669166,-1.5807808790974858 c-0.5361367157519162,-0.4541768038932396 -1.1675370089686892,-0.8016471772118096 -1.8942008796503171,-1.0425041508454813 c-0.726942963193733,-0.24057788096434188 -1.5310084905655554,-0.3611459141158457 -2.4121035512781015,-0.3611459141158457 c-1.0084542770693692,0 -1.9214589149991497,0.14308150847763237 -2.7391069446267027,0.4292445254328976 s-1.501424684282524,0.6656360163572583 -2.050957840615436,1.137860812867311 c-0.549812248845016,0.4725038891793868 -0.9675207086274397,0.9699400568191145 -1.2537765952088467,1.4922154720294059 c-0.2861628557440386,0.5225545078796243 -0.4292442836160582,1.0198976446295744 -0.4292442836160582,1.4922154720294059 c0,0.4905518817962006 0.15201238825934957,0.88370042199547 0.4565023189648895,1.1787944043693641 c0.30430386903080364,0.2953730750432276 0.6380985135072704,0.4429200662301752 1.001663025941504,0.4429200662301752 c0.3087693492244691,0 0.5813497027127755,-0.054516101409553167 0.8176480296275552,-0.16354830422865957 c0.23611226524004278,-0.10903220281910618 0.39966047733302734,-0.25890496625048887 0.4905516054415855,-0.44971132118392476 c0.15433815919355026,-0.35435465916209574 0.3246776224144008,-0.7312227936503203 0.5110183896625504,-1.131069557913561 c0.18606167473604593,-0.3996607024836866 0.38375220414309535,-0.7267573109410057 0.5927924957090436,-0.9811967944821788 c0.20885422989121175,-0.2542534217616191 0.49269131470105015,-0.458642286602555 0.8516973161042509,-0.6132596254125838 c0.35872690889109743,-0.15433824614069733 0.815322258693354,-0.23164691554571235 1.369599987732035,-0.23164691554571235 c0.8176480296275552,0 1.4670963052937234,0.2521137112967391 1.9487169503479789,0.7563411338902171 c0.4814345833795195,0.5042274225934779 0.7222914213253316,1.1062303103429967 0.7222914213253316,1.8056365396894483 c0,0.9177497276539966 -0.30216415977133915,1.6217144705995388 -0.9062133868019124,2.1122663523957392 c-0.6043283195426777,0.4905518817962006 -1.3242009390964402,0.7358743381391897 -2.159989982010759,0.7358743381391897 h-0.5587432092323471 c-0.6451688571472399,0 -1.131068920720424,0.1341505430590028 -1.4581653449063932,0.40198647472812127 c-0.32709642418596935,0.26811502433845036 -0.4905516054415855,0.6200508803663336 -0.4905516054415855,1.0561796916427575 c0,0.4452458384746101 0.13629017674415395,0.7927162117931783 0.40887053023246156,1.0425041508454813 c0.2725803534883076,0.24997400083185892 0.6585652977282351,0.3747284240233449 1.1583269560692548,0.3747284240233449 c0.10903214139532295,0 0.3543544595348003,-0.01804799261681457 0.7358739235810624,-0.054516101409553167 c0.38161249488363064,-0.03618901612340646 0.6630307779219011,-0.054516101409553167 0.8449060649763858,-0.054516101409553167 c1.0357123124182,0 1.844150289146321,0.3021643299969773 2.425686053533833,0.9062138973215987 c0.5813497027127755,0.604328659993954 0.8721641003252167,1.4376993706198535 0.8721641003252167,2.500670317216361 c0,0.7178263455223757 -0.17033946322085064,1.3491339635517736 -0.5110183896625504,1.894201946757527 s-0.7723420118293278,0.9562645160218369 -1.2946171328134088,1.2333105057789175 c-0.5225542134961855,0.2772320515366356 -1.0652961187012318,0.4156620155253987 -1.6285048081272433,0.4156620155253987 c-0.9811962417205392,0 -1.7421884913909684,-0.3066298127062925 -2.282604625661814,-0.9198894381188765 c-0.5406952267829499,-0.6132596254125838 -1.0471551054144674,-1.551197056148274 -1.5194726667319205,-2.8140913848764026 c-0.07284314565916197,-0.20885434755025042 -0.22718130485271254,-0.38840396482062206 -0.4632935700927553,-0.538276728252004 c-0.23639135775214684,-0.1498727634313822 -0.481620645054256,-0.2248556605919624 -0.7358739235810624,-0.2248556605919624 c-0.508878680403086,0 -0.9334714221507434,0.16140859376377947 -1.2741503485924435,0.4837606268424508 c-0.34067892644170095,0.322631125748004 -0.5110183896625504,0.7474101684715867 -0.5110183896625504,1.2741510663911935 c0,0.4088707605716486 0.14308142787201925,0.9266806930726255 0.4292442836160582,1.553522828392709 s0.7086158882322319,1.2333105057789175 1.2673590974645779,1.8193120804867249 s1.2694988067240427,1.0744137460391279 2.132731946661928,1.4649574213246295 c0.8629540474257829,0.39054367528550177 1.8396848089526556,0.5860015747078067 2.929913192068518,0.5860015747078067 c1.0719013081543614,0 2.050957840615436,-0.1703395591824096 2.9367044431963834,-0.5110186775472272 s1.651111301607673,-0.8129969457646505 2.296280158754912,-1.4172325748688261 c0.6449827954725043,-0.6040495673246218 1.1332086299798887,-1.2922920898977854 1.464956596034259,-2.0645415059399363 c0.3314688735422665,-0.7720633542625961 0.49743588740681977,-1.5716638518993007 0.49743588740681977,-2.398429369351005 C30.736947719024403,27.59410655127745 30.614240044535983,26.951356133805465 30.369010757233873,26.356144501009677 z" data-original="#FFFFFF" class="active-path" id="svg_3"/></g></g></svg>