<svg width="42" height="42" viewBox="0 0 42 42" fill="none" xmlns="http://www.w3.org/2000/svg">
<circle cx="21" cy="21" r="21" fill="black"/>
<g clip-path="url(#clip0)">
<g clip-path="url(#clip1)">
<path d="M21.0042 16.2829C18.3957 16.2829 16.2916 18.387 16.2916 20.9956C16.2916 23.6042 18.3957 25.7083 21.0042 25.7083C23.6128 25.7083 25.7169 23.6042 25.7169 20.9956C25.7169 18.387 23.6128 16.2829 21.0042 16.2829ZM21.0042 24.0595C19.3185 24.0595 17.9404 22.6855 17.9404 20.9956C17.9404 19.3058 19.3144 17.9318 21.0042 17.9318C22.6941 17.9318 24.0681 19.3058 24.0681 20.9956C24.0681 22.6855 22.69 24.0595 21.0042 24.0595V24.0595ZM27.0089 16.0902C27.0089 16.7013 26.5167 17.1894 25.9097 17.1894C25.2986 17.1894 24.8105 16.6972 24.8105 16.0902C24.8105 15.4831 25.3027 14.9909 25.9097 14.9909C26.5167 14.9909 27.0089 15.4831 27.0089 16.0902ZM30.1302 17.2058C30.0605 15.7333 29.7242 14.429 28.6455 13.3544C27.5708 12.2798 26.2666 11.9435 24.7941 11.8697C23.2765 11.7835 18.7279 11.7835 17.2103 11.8697C15.7419 11.9394 14.4376 12.2757 13.3589 13.3503C12.2802 14.4249 11.948 15.7292 11.8742 17.2017C11.788 18.7193 11.788 23.2679 11.8742 24.7855C11.9439 26.2579 12.2802 27.5622 13.3589 28.6368C14.4376 29.7115 15.7378 30.0478 17.2103 30.1216C18.7279 30.2077 23.2765 30.2077 24.7941 30.1216C26.2666 30.0519 27.5708 29.7156 28.6455 28.6368C29.7201 27.5622 30.0564 26.2579 30.1302 24.7855C30.2164 23.2679 30.2164 18.7234 30.1302 17.2058V17.2058ZM28.1697 26.4138C27.8498 27.2177 27.2304 27.837 26.4224 28.1611C25.2125 28.6409 22.3414 28.5302 21.0042 28.5302C19.6671 28.5302 16.7919 28.6368 15.5861 28.1611C14.7822 27.8411 14.1628 27.2218 13.8388 26.4138C13.3589 25.2038 13.4697 22.3327 13.4697 20.9956C13.4697 19.6585 13.363 16.7833 13.8388 15.5775C14.1587 14.7736 14.7781 14.1542 15.5861 13.8302C16.796 13.3503 19.6671 13.4611 21.0042 13.4611C22.3414 13.4611 25.2166 13.3544 26.4224 13.8302C27.2263 14.1501 27.8457 14.7695 28.1697 15.5775C28.6496 16.7874 28.5388 19.6585 28.5388 20.9956C28.5388 22.3327 28.6496 25.2079 28.1697 26.4138Z" fill="white"/>
</g>
</g>
<defs>
<clipPath id="clip0">
<rect x="10.5" y="10.5" width="21" height="21" fill="white"/>
</clipPath>
<clipPath id="clip1">
<rect x="11.8125" y="10.5" width="18.375" height="21" fill="white"/>
</clipPath>
</defs>
</svg>
