<svg xmlns="http://www.w3.org/2000/svg" xmlns:xlink="http://www.w3.org/1999/xlink" version="1.1" style="enable-background:new 0 0 496.158 496.158;" xml:space="preserve" width="48" height="48"><rect id="backgroundrect" width="100%" height="100%" x="0" y="0" fill="none" stroke="none" class="" style=""/> <g class="currentLayer" style=""><title>Layer 1</title><g id="svg_1" class=""><path style="fill:#FF5A5F" d="M24.028540339889307,0.6358842992262501 C11.107482752782403,0.6358842992262501 0.6329121589660645,11.109323220699709 0.6329121589660645,24.031512480149512 c0,12.919925914764008 10.474570593816338,23.394496508580342 23.395628180923246,23.394496508580342 c12.920491750935456,0 23.395062344751793,-10.474570593816338 23.395062344751793,-23.394496508580342 C47.423602684641104,11.109323220699709 36.949032090824765,0.6358842992262501 24.028540339889307,0.6358842992262501 z" data-original="#56B48C" class="active-path" data-old_color="#56B48C" id="svg_2"/><path style="fill:#FFFFFF;" d="M30.79037689473963,31.34117275499155 c-0.3776956444425536,-0.2946120332680494 -0.9255193644342624,-0.44210666195922416 -1.6439426901180014,-0.44210666195922416 h-7.21111047498124 c0.23010670972280442,-0.34987536601295294 0.45587534213116226,-0.6492970067383227 0.6769286731107744,-0.8978876980618112 c0.5156653642476614,-0.6261920297374672 1.4664587443400023,-1.505784358255744 2.8526630583627477,-2.6385883734976803 c1.385921395937021,-1.1328040152419363 2.3736827392307305,-1.9638287390441296 2.9631897238525537,-2.4934513955208786 c0.5893183725646737,-0.5294340444195998 1.1673200217003568,-1.2616260502752765 1.7337220293213251,-2.196481711538456 c0.5664020076209682,-0.9346670492060297 0.8496030114314523,-1.9730707298444723 0.8496030114314523,-3.1151167358867498 c0,-0.7273823983983561 -0.13598929320503444,-1.4297736992243588 -0.40749634947222807,-2.1067023723351324 c-0.27178997435291885,-0.6769286731107744 -0.651654657452696,-1.2731313857614173 -1.1396883553279054,-1.7889853620662275 c-0.4882223099323597,-0.5156653642476614 -1.0546243175533279,-0.9208040630055166 -1.6992060228629047,-1.2156990143592916 c-0.9946456833796794,-0.44210666195922416 -2.196481711538456,-0.6630656869102609 -3.6055080844763325,-0.6630656869102609 c-1.1696776724147298,0 -2.189597371452487,0.17267433832067802 -3.0598534031418465,0.5180230149620343 s-1.5886793573730986,0.7990549801152952 -2.1550813649940666,1.3607416863075175 c-0.5664020076209682,0.5618753182493722 -0.9924766447224554,1.1880673479868393 -1.2778466871901628,1.8787647012695516 c-0.28555865452485746,0.6906973532827126 -0.4282436757587107,1.3537630401929739 -0.4282436757587107,1.9892913667593575 c0,0.5249073550480033 0.15192701203419595,0.9393823506347759 0.45587534213116226,1.2433306807317421 s0.6859820518539667,0.45587534213116226 1.1465726954138746,0.45587534213116226 c0.5249073550480033,0 0.9231617137198896,-0.16578999823470905 1.1949516880728082,-0.49727568867555216 c0.27150705626719424,-0.3315799964694181 0.5156653642476614,-0.8057507081441145 0.732192005855677,-1.4228893591383898 c0.2162437235222912,-0.6169500389371252 0.3706226922994349,-0.9946456833796794 0.46275968221713154,-1.1328040152419363 c0.6906973532827126,-1.0589623948677742 1.6391330826606807,-1.5886793573730986 2.8457787182767786,-1.5886793573730986 c0.5709286969925647,0 1.0982880087835156,0.12910495311906522 1.5817007112585546,0.3868433292143208 c0.4835070085036139,0.25792698815240567 0.8655407302606136,0.6194963017086476 1.1465726954138746,1.0844250225830026 c0.2808433530961112,0.46521163896007944 0.4213593356727421,0.9924766447224554 0.4213593356727421,1.5817007112585546 c0,0.5434856426772626 -0.13127399177628848,1.0982880087835156 -0.39372766930029035,1.6645957103759086 s-0.6447703173667267,1.118941029041423 -1.1465726954138746,1.65771137028994 c-0.5020852961328732,0.538770341248517 -1.1306349765847132,1.07537164383981 -1.8856490413555211,1.6093323776310058 c-0.42371698638711486,0.28555865452485746 -1.1282773258703411,0.8819499792326496 -2.113586712421102,1.7889853620662275 c-0.985592304636487,0.907223994890728 -2.0906703474773964,1.9961757068453267 -3.31542274057988,3.2671380539495205 c-0.2948006453251994,0.3131903208973087 -0.5664020076209682,0.7437916473703926 -0.8150870049730315,1.2916153673621011 c-0.24868499735206373,0.5481066380774345 -0.3729803430138077,0.9877613432937099 -0.3729803430138077,1.3192470337345525 c0,0.5158539763048114 0.19342166460716048,0.9648449783500044 0.5801706877929065,1.3468787001070042 c0.3868433292143208,0.38231663984272457 0.9255193644342624,0.5732863477069373 1.6163110237455498,0.5732863477069373 H29.547140520036464 c0.6078023541653579,0 1.061320045582147,-0.15645370140579196 1.3607416863075175,-0.46964402230310076 c0.29913872263964586,-0.31300170884015893 0.4489910020451932,-0.6952240426543083 0.4489910020451932,-1.1465726954138746 C31.3567789023606,32.03667971573158 31.167883927125036,31.636067706345308 30.79037689473963,31.34117275499155 z" data-original="#FFFFFF" class="" id="svg_3"/></g></g></svg>