<svg width="36" height="36" viewBox="0 0 36 36" fill="none" xmlns="http://www.w3.org/2000/svg">
<circle cx="18" cy="18" r="18" fill="white"/>
<g clip-path="url(#clip0)">
<path d="M18.0037 13.9568C15.7678 13.9568 13.9643 15.7604 13.9643 17.9963C13.9643 20.2322 15.7678 22.0357 18.0037 22.0357C20.2396 22.0357 22.0432 20.2322 22.0432 17.9963C22.0432 15.7604 20.2396 13.9568 18.0037 13.9568ZM18.0037 20.6225C16.5588 20.6225 15.3775 19.4447 15.3775 17.9963C15.3775 16.5479 16.5553 15.3701 18.0037 15.3701C19.4521 15.3701 20.6299 16.5479 20.6299 17.9963C20.6299 19.4447 19.4486 20.6225 18.0037 20.6225V20.6225ZM23.1506 13.7916C23.1506 14.3154 22.7287 14.7338 22.2084 14.7338C21.6846 14.7338 21.2662 14.3119 21.2662 13.7916C21.2662 13.2713 21.6881 12.8494 22.2084 12.8494C22.7287 12.8494 23.1506 13.2713 23.1506 13.7916ZM25.826 14.7479C25.7662 13.4857 25.4779 12.3678 24.5533 11.4467C23.6322 10.5256 22.5143 10.2373 21.2521 10.174C19.9514 10.1002 16.0525 10.1002 14.7518 10.174C13.4932 10.2338 12.3752 10.5221 11.4506 11.4432C10.526 12.3643 10.2412 13.4822 10.1779 14.7443C10.1041 16.0451 10.1041 19.9439 10.1779 21.2447C10.2377 22.5068 10.526 23.6248 11.4506 24.5459C12.3752 25.467 13.4896 25.7553 14.7518 25.8186C16.0525 25.8924 19.9514 25.8924 21.2521 25.8186C22.5143 25.7588 23.6322 25.4705 24.5533 24.5459C25.4744 23.6248 25.7627 22.5068 25.826 21.2447C25.8998 19.9439 25.8998 16.0486 25.826 14.7479V14.7479ZM24.1455 22.6404C23.8713 23.3295 23.3404 23.8604 22.6479 24.1381C21.6107 24.5494 19.1498 24.4545 18.0037 24.4545C16.8576 24.4545 14.3932 24.5459 13.3596 24.1381C12.6705 23.8639 12.1396 23.333 11.8619 22.6404C11.4506 21.6033 11.5455 19.1424 11.5455 17.9963C11.5455 16.8502 11.4541 14.3857 11.8619 13.3521C12.1361 12.6631 12.667 12.1322 13.3596 11.8545C14.3967 11.4432 16.8576 11.5381 18.0037 11.5381C19.1498 11.5381 21.6143 11.4467 22.6479 11.8545C23.3369 12.1287 23.8678 12.6596 24.1455 13.3521C24.5568 14.3893 24.4619 16.8502 24.4619 17.9963C24.4619 19.1424 24.5568 21.6068 24.1455 22.6404Z" fill="black"/>
</g>
<defs>
<clipPath id="clip0">
<rect x="10.125" y="9" width="15.75" height="18" fill="white"/>
</clipPath>
</defs>
</svg>
