<svg xmlns="http://www.w3.org/2000/svg" version="1.0" width="63.50877197385398" height="28.508771973853868" preserveAspectRatio="xMidYMid meet"><rect id="backgroundrect" width="100%" height="100%" x="0" y="0" fill="none" stroke="none" class="" style=""/>
<metadata>
Created by potrace 1.15, written by Peter Selinger 2001-2017
</metadata>

<g class="currentLayer" style=""><title>Layer 1</title><g transform="translate(0,141) scale(0.10000000149011612,-0.10000000149011612) " fill="#ff5a5f" stroke="none" id="svg_1" class="" fill-opacity="1">
<path d="M212.39026846173897,1385.0546234939172 l-13.799369493505356,-3.4962320455581777 l0.6899684746752682,-15.208609398178075 c0.8624605933440855,-19.928522659681608 -2.9323660173698882,-46.49988620592376 -15.17930644285589,-105.93583098041279 c-13.799369493505356,-66.42840886560539 -15.524290680193525,-76.74229340000203 -15.524290680193525,-87.58061274123234 c0,-23.949189512073517 15.351798561524706,-34.78750885330387 38.983218819152626,-27.795044762187512 c11.211987713473102,3.3214204432802683 29.841136529705327,12.586435364009441 37.603281869802096,18.879653046014155 l5.174763560064509,4.195478454669813 l-3.7948266107139723,6.118406079726811 l-3.7948266107139723,6.2932176820047205 l-8.279621696103213,-3.1466088410023603 c-17.076719748212877,-6.468029284282627 -15.869274917531161,-6.817652488838446 -15.869274917531161,4.71991326150354 c0,11.01313094350826 3.7948266107139723,31.99052321685732 16.041767036199975,90.5524099799568 c4.312302966720424,20.278145864237434 9.48706652678493,46.84950941047958 11.556971950810734,59.26113317221111 c3.7948266107139723,22.900319898406064 5.174763560064509,50.87017626287149 2.7598738987010716,54.890843115263394 c-1.8974133053569866,3.1466088410023603 -20.526562121589215,2.4473624318907246 -36.5683291577892,-1.748116022779089 z" id="svg_2" fill="#ff5a5f" fill-opacity="1"/>
<path d="M86.29852971483379,1379.285840618746 c-43.64050602321069,-11.887188954897804 -77.79394551963645,-60.135191183600654 -85.03861450372676,-119.74594756036758 c-5.347255678733326,-44.227335376310954 2.587381780032255,-76.04304699089036 24.14889661363437,-97.89449727562898 c28.633691699023615,-29.018725978132878 77.10397704496117,-23.949189512073517 114.01729044008803,11.887188954897804 c7.589653221427945,7.167275693394263 13.626877374836539,13.98492818223271 13.626877374836539,15.033797795900163 c0,2.0977392273349067 -10.522019238797832,13.285681773121073 -12.419432544154821,13.285681773121073 c-0.6899684746752682,0 -6.2097162720774115,-3.8458552501139947 -12.419432544154821,-8.565768511617533 c-17.594196104219332,-13.46049337539898 -38.120758225808544,-18.35521823918043 -50.54019076996337,-11.887188954897804 c-16.041767036199975,8.390956909339627 -22.941451782952647,26.920986750797958 -22.941451782952647,61.35887239954601 c0,48.07319062642496 12.591924662823635,90.02797517312307 32.25602619106877,107.68394700319185 c8.452113814772028,7.516898897950082 12.591924662823635,8.740580113895442 23.80391237629674,6.9924640911163545 c11.729464069479551,-1.748116022779089 12.074448306817185,-2.6221740341686344 8.624605933440847,-21.152203875626974 l-3.1048581360387053,-16.08266740956762 l4.1398108480516065,-3.1466088410023603 c6.899684746752678,-5.419159670615176 22.596467545615017,-10.66350773895244 32.601010428406404,-11.01313094350826 c9.314574408116114,-0.17481160227790932 9.314574408116114,-0.17481160227790932 13.454385256167722,7.342087295672172 c5.6922399160709585,10.139072932118717 6.899684746752678,25.87211713713051 3.1048581360387053,36.011190069249224 c-3.4498423733763395,9.09020331845126 -15.351798561524706,20.802580671071155 -25.701325681653724,25.34768233029679 c-16.731735510875243,7.342087295672172 -40.53564788717199,9.09020331845126 -57.612367635384864,4.54510165922563 z" id="svg_3" fill="#ff5a5f" fill-opacity="1"/>
<path d="M342.6218180566957,1295.3762715253501 c-0.5174763560064508,-0.34962320455581836 -8.279621696103213,-1.2236812159453625 -17.24921186688169,-1.5733044205011804 c-8.96959017077848,-0.34962320455581836 -19.664101528245126,-2.0977392273349067 -23.976404494965557,-3.4962320455581777 c-18.629148816232227,-6.6428408865605375 -35.533376445776284,-26.571363546242146 -43.295521785873056,-50.52055305831568 c-5.347255678733326,-16.607102216401348 -5.864732034739776,-51.04498786514938 -1.0349527120129018,-65.37953925193791 c4.1398108480516065,-12.062000557175715 14.66183008684944,-23.949189512073517 25.011357206978456,-27.96985636446542 c17.594196104219332,-6.817652488838446 40.363155768503155,-3.1466088410023603 56.57741492337195,9.265014920729172 c13.109401018830086,10.139072932118717 26.73627839366663,34.08826244419223 33.463471021750486,58.73669836537738 c1.8974133053569866,6.817652488838446 3.6223344920451552,12.761246966287345 4.1398108480516065,13.11087017084317 c0.3449842373376345,0.34962320455581836 6.554700509415043,2.0977392273349067 13.799369493505356,3.8458552501139947 l13.109401018830086,3.1466088410023603 l4.657287204058058,-6.2932176820047205 c2.587381780032255,-3.3214204432802683 9.314574408116114,-11.362754148064077 15.006814324187076,-17.655971830068797 c20.354070002920402,-22.725508296128154 27.426246868341895,-38.10892929658414 20.87154635892685,-45.45101659225631 c-4.829779322726875,-5.419159670615176 -7.2446689840903105,-4.195478454669813 -12.419432544154821,6.468029284282627 c-2.587381780032255,5.419159670615176 -8.79709805210967,14.334551386788526 -13.626877374836539,19.578899455125793 l-8.79709805210967,9.614638125284989 l-7.589653221427945,-4.54510165922563 c-9.832050764122563,-5.768782875170992 -23.976404494965557,-21.152203875626974 -23.976404494965557,-25.87211713713051 c0,-4.71991326150354 11.039495594804285,-16.95672542095716 19.319117290907496,-21.152203875626974 c10.522019238797832,-5.419159670615176 30.186120767042965,-7.8665221025059004 43.8129981418795,-5.244348068337268 c28.978675936361242,5.419159670615176 47.26284051525584,23.24994310296188 47.26284051525584,45.80063979681213 c0,10.838319341230351 -3.967318729382791,20.627769068793246 -13.109401018830086,33.38901603508059 l-6.2097162720774115,8.565768511617533 l3.4498423733763395,3.8458552501139947 c1.8974133053569866,2.0977392273349067 5.864732034739776,7.691710500227989 8.79709805210967,12.411623761731533 c6.554700509415043,10.66350773895244 7.2446689840903105,23.07513150068397 1.8974133053569866,32.16533481913524 c-9.832050764122563,16.257479011845522 -50.02271441395691,18.879653046014155 -72.61918195957192,4.894724863781449 c-11.039495594804285,-6.6428408865605375 -15.351798561524706,-14.334551386788526 -15.351798561524706,-26.746175148520052 c0,-7.8665221025059004 -0.5174763560064508,-9.265014920729172 -3.2773502547075215,-9.265014920729172 c-1.7249211866881697,0 -5.519747797402143,-0.5244348068337266 -8.279621696103213,-1.0488696136674536 l-5.174763560064509,-1.0488696136674536 l-1.7249211866881697,14.159739784510617 c-3.1048581360387053,24.29881271662934 -11.211987713473102,35.13713205785969 -25.873817800322545,35.13713205785969 c-3.7948266107139723,0 -7.2446689840903105,-0.34962320455581836 -7.589653221427945,-0.8740580113895452 zm-17.076719748212877,-25.172870728018882 c-3.2773502547075215,-8.04133370478381 -2.7598738987010716,-25.34768233029679 0.6899684746752682,-30.766842000911957 c4.1398108480516065,-6.468029284282627 12.591924662823635,-11.187942545786168 22.25148330827739,-12.411623761731533 c4.484795085389241,-0.6992464091116356 8.107129577434396,-1.748116022779089 8.107129577434396,-2.6221740341686344 c0,-0.8740580113895452 -1.8974133053569866,-6.817652488838446 -4.312302966720424,-13.285681773121073 c-8.624605933440847,-23.24994310296188 -20.87154635892685,-37.409682887472506 -32.601010428406404,-37.75930609202831 c-12.419432544154821,-0.34962320455581836 -17.42170398555051,10.139072932118717 -17.24921186688169,36.36081327380504 c0.17249211866881728,18.879653046014155 3.2773502547075215,34.26307404647013 10.177035001460201,49.296871842370315 c6.382208390746226,14.334551386788526 18.456656697563414,24.648435921185158 12.936908900161272,11.187942545786168 zm140.23609247774817,1.922927625056998 c5.519747797402143,-4.894724863781449 2.7598738987010716,-16.08266740956762 -6.037224153408593,-24.29881271662934 l-4.1398108480516065,-4.020666852391906 l-7.072176865421493,7.516898897950082 c-11.729464069479551,12.236812159453622 -13.109401018830086,17.83078343234671 -5.174763560064509,21.851450284738608 c8.279621696103213,4.195478454669813 16.904227629544057,3.8458552501139947 22.423975426946203,-1.0488696136674536 z" id="svg_4" fill="#ff5a5f" fill-opacity="1"/>
<path d="M563.5842220714504,1292.7540974911815 c-17.93918034155696,-3.8458552501139947 -39.50069517515908,-18.530029841458344 -50.02271441395691,-34.08826244419223 c-15.869274917531161,-23.24994310296188 -19.491609409576313,-62.23293041093555 -8.452113814772028,-88.45467075262191 c4.312302966720424,-10.139072932118717 15.524290680193525,-21.152203875626974 25.011357206978456,-24.473624318907245 c10.004542882791384,-3.671043647836086 33.80845525908811,-2.6221740341686344 46.400379921911735,1.748116022779089 c11.039495594804285,4.020666852391906 28.978675936361242,15.208609398178075 35.188392208438664,21.851450284738608 l3.967318729382791,4.195478454669813 l-3.967318729382791,5.419159670615176 c-3.967318729382791,5.593971272893084 -7.4171611027591275,6.817652488838446 -9.314574408116114,3.671043647836086 c-0.6899684746752682,-1.0488696136674536 -5.864732034739776,-4.195478454669813 -11.729464069479551,-7.167275693394263 c-18.801640934901048,-9.789449727562898 -32.601010428406404,-6.9924640911163545 -39.32820305649025,7.691710500227989 c-5.002271441395692,11.537565750341985 -4.484795085389241,14.858986193622254 3.2773502547075215,16.08266740956762 c19.319117290907496,3.3214204432802683 43.64050602321069,13.635304977676892 53.81754102467089,22.900319898406064 c13.799369493505356,12.586435364009441 19.491609409576313,34.78750885330387 13.109401018830086,50.170929853759844 c-2.7598738987010716,6.817652488838446 -11.039495594804285,14.159739784510617 -19.83659364691395,18.005595034624612 c-7.7621453400967635,3.3214204432802683 -27.771231105679526,4.54510165922563 -38.120758225808544,2.4473624318907246 zm15.17930644285589,-22.725508296128154 c3.6223344920451552,-6.9924640911163545 1.7249211866881697,-24.473624318907245 -3.7948266107139723,-33.91345084191432 c-5.174763560064509,-8.915391716173357 -11.384479832141915,-13.98492818223271 -21.734006952270935,-17.655971830068797 l-7.072176865421493,-2.4473624318907246 l1.2074448306817192,9.09020331845126 c1.2074448306817192,11.01313094350826 5.347255678733326,27.96985636446542 8.452113814772028,35.83637846697132 c5.519747797402143,13.285681773121073 18.11167246022578,18.35521823918043 22.941451782952647,9.09020331845126 z" id="svg_5" fill="#ff5a5f" fill-opacity="1"/>
</g></g></svg>