<svg xmlns="http://www.w3.org/2000/svg" version="1.0" width="362.000000" height="141.000000" preserveAspectRatio="xMidYMid meet"><rect id="backgroundrect" width="100%" height="100%" x="0" y="0" fill="none" stroke="none"/>
<metadata>
Created by potrace 1.15, written by Peter Selinger 2001-2017
</metadata>

<g class="currentLayer" style=""><title>Layer 1</title><g transform="translate(0,141) scale(0.10000000149011612,-0.10000000149011612) " fill="#ff5a5f" stroke="none" id="svg_1" class="" fill-opacity="1">
<path d="M1234 1388 l-80 -20 4 -87 c5 -114 -17 -266 -88 -606 -80 -380 -90 -439 -90 -501 0 -137 89 -199 226 -159 65 19 173 72 218 108 l30 24 -22 35 -22 36 -48 -18 c-99 -37 -92 -39 -92 27 0 63 22 183 93 518 25 116 55 268 67 339 22 131 30 291 16 314 -11 18 -119 14 -212 -10z" id="svg_2" fill="#ff5a5f" fill-opacity="1"/>
<path d="M503 1355 c-253 -68 -451 -344 -493 -685 -31 -253 15 -435 140 -560 166 -166 447 -137 661 68 44 41 79 80 79 86 0 12 -61 76 -72 76 -4 0 -36 -22 -72 -49 -102 -77 -221 -105 -293 -68 -93 48 -133 154 -133 351 0 275 73 515 187 616 49 43 73 50 138 40 68 -10 70 -15 50 -121 l-18 -92 24 -18 c40 -31 131 -61 189 -63 54 -1 54 -1 78 42 33 58 40 148 18 206 -20 52 -89 119 -149 145 -97 42 -235 52 -334 26z" id="svg_3" fill="#ff5a5f" fill-opacity="1"/>
<path d="M1989 875 c-3 -2 -48 -7 -100 -9 -52 -2 -114 -12 -139 -20 -108 -38 -206 -152 -251 -289 -31 -95 -34 -292 -6 -374 24 -69 85 -137 145 -160 102 -39 234 -18 328 53 76 58 155 195 194 336 11 39 21 73 24 75 2 2 38 12 80 22 l76 18 27 -36 c15 -19 54 -65 87 -101 118 -130 159 -218 121 -260 -28 -31 -42 -24 -72 37 -15 31 -51 82 -79 112 l-51 55 -44 -26 c-57 -33 -139 -121 -139 -148 0 -27 64 -97 112 -121 61 -31 175 -45 254 -30 168 31 274 133 274 262 0 62 -23 118 -76 191 l-36 49 20 22 c11 12 34 44 51 71 38 61 42 132 11 184 -57 93 -290 108 -421 28 -64 -38 -89 -82 -89 -153 0 -45 -3 -53 -19 -53 -10 0 -32 -3 -48 -6 l-30 -6 -10 81 c-18 139 -65 201 -150 201 -22 0 -42 -2 -44 -5z m-99 -144 c-19 -46 -16 -145 4 -176 24 -37 73 -64 129 -71 26 -4 47 -10 47 -15 0 -5 -11 -39 -25 -76 -50 -133 -121 -214 -189 -216 -72 -2 -101 58 -100 208 1 108 19 196 59 282 37 82 107 141 75 64z m813 11 c32 -28 16 -92 -35 -139 l-24 -23 -41 43 c-68 70 -76 102 -30 125 48 24 98 22 130 -6z" id="svg_4" fill="#ff5a5f" fill-opacity="1"/>
<path d="M3270 860 c-104 -22 -229 -106 -290 -195 -92 -133 -113 -356 -49 -506 25 -58 90 -121 145 -140 58 -21 196 -15 269 10 64 23 168 87 204 125 l23 24 -23 31 c-23 32 -43 39 -54 21 -4 -6 -34 -24 -68 -41 -109 -56 -189 -40 -228 44 -29 66 -26 85 19 92 112 19 253 78 312 131 80 72 113 199 76 287 -16 39 -64 81 -115 103 -45 19 -161 26 -221 14z m88 -130 c21 -40 10 -140 -22 -194 -30 -51 -66 -80 -126 -101 l-41 -14 7 52 c7 63 31 160 49 205 32 76 105 105 133 52z" id="svg_5" fill="#ff5a5f" fill-opacity="1"/>
</g></g></svg>